<svg width="1024" height="1024" viewBox="0 0 1024 1024" xmlns="http://www.w3.org/2000/svg" role="img" aria-label="System 8 monogram">
  <defs>
    <linearGradient id="bg" x1="0%" y1="0%" x2="100%" y2="100%">
      <stop offset="0%" stop-color="#021215" />
      <stop offset="100%" stop-color="#0b3d3f" />
    </linearGradient>
    <linearGradient id="glow" x1="0%" y1="0%" x2="100%" y2="0%">
      <stop offset="0%" stop-color="#facc15" />
      <stop offset="100%" stop-color="#2dd4bf" />
    </linearGradient>
    <filter id="shadow" x="-20%" y="-20%" width="140%" height="140%">
      <feDropShadow dx="0" dy="0" stdDeviation="25" flood-color="#0f172a" flood-opacity="0.7" />
    </filter>
  </defs>
  <rect width="1024" height="1024" rx="140" fill="url(#bg)" />
  <rect x="72" y="72" width="880" height="880" rx="120" fill="none" stroke="#0d9488" stroke-width="8" opacity="0.35" />
  <g filter="url(#shadow)">
    <path d="M284 672c0 74 60 134 134 134h188c74 0 134-60 134-134 0-74-60-134-134-134h-80c-28 0-50-22-50-50 0-28 22-50 50-50h152c28 0 50-22 50-50s-22-50-50-50H422c-74 0-134 60-134 134 0 74 60 134 134 134h80c28 0 50 22 50 50 0 28-22 50-50 50H334c-28 0-50-22-50-50 0-28-22-50-50-50s-50 22-50 50z" fill="url(#glow)" />
  </g>
  <text x="512" y="860" font-family="'Fira Code', 'IBM Plex Mono', monospace" font-size="120" text-anchor="middle" fill="#e2e8f0" opacity="0.8">SYSTEM 8</text>
</svg>
